<svg width="55" height="88" viewBox="0 0 55 88" fill="none" xmlns="http://www.w3.org/2000/svg">
<path d="M23 25.1463C23 23.7316 22.6998 22.3329 22.1192 21.0427L20.75 18L19.923 18.6361C18.3437 19.851 17.1634 21.5099 16.5333 23.4001L15.6667 26L9.89841 25.1951C8.97074 25.0657 8.02948 25.0672 7.10223 25.1997L2.87706 25.8033C2.01463 25.9265 1.26752 26.465 0.877905 27.2442C0.632045 27.7359 0.544897 28.2918 0.628492 28.8352L1.20829 32.6039C1.40101 33.8565 1.83008 35.0611 2.47267 36.1535L6.5 43L10.5 48.0667L14.9244 43.7279C15.4179 43.2439 15.8599 42.7101 16.2433 42.135L20.2572 36.1143C20.7502 35.3747 21.1424 34.5728 21.4235 33.7295L22.4868 30.5395C22.8267 29.5198 23 28.452 23 27.3772V25.1463Z" fill="#FFD6B8"/>
<path fill-rule="evenodd" clip-rule="evenodd" d="M50 10.1667L44.7474 14.4765C43.9211 15.1545 42.9916 15.6956 41.994 16.0792L38.733 17.3335C37.5875 17.7741 36.3706 18 35.1432 18H31.0913C29.3918 18 27.7204 17.5669 26.2348 16.7416L24 15.5L20.75 18L22.1192 21.0427C22.6998 22.3329 23 23.7316 23 25.1463V27.3772C23 28.452 22.8267 29.5198 22.4868 30.5395L21.4235 33.7295C21.1424 34.5728 20.7502 35.3747 20.2572 36.1143L16.2433 42.135C15.8599 42.7101 15.4179 43.2439 14.9244 43.7279L10.5 48.0667L14 52.5L20.5 59.5L16.0719 61.5128C15.3598 61.8365 14.6881 62.2426 14.0706 62.7229L12.5564 63.9005C11.2272 64.9344 10.3001 66.3994 9.93485 68.0432L9.7362 68.9371C9.58164 69.6326 9.61901 70.357 9.84432 71.033C10.2546 72.2639 11.246 73.2132 12.4937 73.5696L13.2656 73.7902C13.7528 73.9294 14.2571 74 14.7637 74H19.0995C20.0286 74 20.9532 73.8705 21.8467 73.6152L24 73L36 69.7273L37.7522 71.6388C38.5771 72.5387 39.5598 73.2799 40.6516 73.8258L46.1687 76.5844C46.7217 76.8609 47.2992 77.0855 47.8936 77.2553L54 79L53.5 12.5L50 10.1667Z" fill="white"/>
<path d="M28.5 12.5L24 15.5L26.2348 16.7416C27.7204 17.5669 29.3918 18 31.0913 18H35.1432C36.3706 18 37.5875 17.7741 38.733 17.3335L41.994 16.0792C42.9916 15.6956 43.9211 15.1545 44.7474 14.4765L50 10.1667L43.7639 6.00928C43.2557 5.67047 42.7175 5.37894 42.1561 5.13833L34.7057 1.94528C33.3735 1.37436 31.828 1.672 30.8032 2.69683C30.2808 3.21919 29.9347 3.89172 29.8133 4.6204L28.5 12.5Z" fill="#FFD6B8"/>
<path d="M53.5 12.5L54 79M53.5 12.5V0M53.5 12.5L50 10.1667M28.5 12.5L32.5 14M28.5 12.5L24 15.5M28.5 12.5L29.8133 4.6204M24 15.5L20.75 18M24 15.5L26.2348 16.7416C27.7204 17.5669 29.3918 18 31.0913 18H35.1432C36.3706 18 37.5875 17.7741 38.733 17.3335L41.994 16.0792C42.9916 15.6956 43.9211 15.1545 44.7474 14.4765L50 10.1667M15 28L15.6667 26M15.6667 26L9.89841 25.1951M15.6667 26L16.5333 23.4001M20.5 59.5L14 52.5L10.5 48.0667M20.5 59.5L28.5 58.5M20.5 59.5L16.0719 61.5128M40.5 68.5L36 69.7273M36 69.7273L24 73L21.8467 73.6152M36 69.7273L37.7522 71.6388M54 79V87.5M54 79L47.8936 77.2553M20.75 18L22.1192 21.0427C22.6998 22.3329 23 23.7316 23 25.1463V27.3772C23 28.452 22.8267 29.5198 22.4868 30.5395L21.4235 33.7295C21.1424 34.5728 20.7502 35.3747 20.2572 36.1143L16.2433 42.135C15.8599 42.7101 15.4179 43.2439 14.9244 43.7279L10.5 48.0667M20.75 18L19.923 18.6361M10.5 48.0667L6.5 43L2.47267 36.1535M50 10.1667L43.7639 6.00928M34.7057 1.94528L42.1561 5.13833M34.7057 1.94528C33.3735 1.37436 31.828 1.672 30.8032 2.69683M34.7057 1.94528C33.3735 1.37436 31.828 1.672 30.8032 2.69683M42.1561 5.13833C42.7175 5.37894 43.2557 5.67047 43.7639 6.00928M42.1561 5.13833C42.7175 5.37894 43.2557 5.67047 43.7639 6.00928M47.8936 77.2553C47.2992 77.0855 46.7217 76.8609 46.1687 76.5844M47.8936 77.2553C47.2992 77.0855 46.7217 76.8609 46.1687 76.5844M46.1687 76.5844L40.6516 73.8258M40.6516 73.8258C39.5598 73.2799 38.5771 72.5387 37.7522 71.6388M40.6516 73.8258C39.5598 73.2799 38.5771 72.5387 37.7522 71.6388M21.8467 73.6152C20.9532 73.8705 20.0286 74 19.0995 74M21.8467 73.6152C20.9533 73.8705 20.0286 74 19.0995 74M19.0995 74H14.7637M14.7637 74C14.2571 74 13.7528 73.9294 13.2656 73.7902M14.7637 74C14.2571 74 13.7528 73.9294 13.2656 73.7902M13.2656 73.7902L12.4937 73.5696M12.4937 73.5696C11.246 73.2132 10.2546 72.2639 9.84432 71.033M12.4937 73.5696C11.246 73.2131 10.2546 72.2639 9.84432 71.033M9.84432 71.033C9.61901 70.357 9.58164 69.6326 9.7362 68.9371M9.84432 71.033C9.61901 70.357 9.58164 69.6326 9.7362 68.9371M9.7362 68.9371L9.93485 68.0432M9.93485 68.0432C10.3001 66.3994 11.2272 64.9344 12.5564 63.9005M9.93485 68.0432C10.3001 66.3994 11.2272 64.9344 12.5564 63.9005M12.5564 63.9005L14.0706 62.7229M14.0706 62.7229C14.6881 62.2426 15.3598 61.8365 16.0719 61.5128M14.0706 62.7229C14.6881 62.2426 15.3598 61.8365 16.0719 61.5128M2.47267 36.1535C1.83008 35.0611 1.40101 33.8565 1.20829 32.6039M2.47267 36.1535C1.83008 35.0611 1.40101 33.8565 1.20829 32.6039M1.20829 32.6039L0.628492 28.8352M0.628492 28.8352C0.544897 28.2918 0.632045 27.7359 0.877905 27.2442M0.628492 28.8352C0.544897 28.2918 0.632045 27.7359 0.877905 27.2442M0.877905 27.2442C1.26752 26.465 2.01463 25.9265 2.87706 25.8033M0.877905 27.2442C1.26752 26.465 2.01463 25.9265 2.87706 25.8033M2.87706 25.8033L7.10223 25.1997M7.10223 25.1997C8.02948 25.0672 8.97074 25.0657 9.89841 25.1951M7.10223 25.1997C8.02948 25.0672 8.97074 25.0657 9.89841 25.1951M16.5333 23.4001C17.1634 21.5099 18.3437 19.851 19.923 18.6361M16.5333 23.4001C17.1634 21.5099 18.3437 19.851 19.923 18.6361M29.8133 4.6204C29.9347 3.89172 30.2808 3.21919 30.8032 2.69683M29.8133 4.6204C29.9347 3.89172 30.2808 3.21919 30.8032 2.69683" stroke="black"/>
<path d="M50.0273 20.011C50.0273 19.9513 50.0567 19.7086 50.4872 18.843C51.2137 17.3824 51.5604 17.1099 51.8304 16.9539C51.8959 16.9216 51.9494 16.9005 52.0018 16.8779C52.0541 16.8553 52.1038 16.832 52.1786 16.7861" stroke="#252525" stroke-width="2" stroke-linecap="round"/>
<path d="M52.0947 21.3133C52.0963 21.2027 52.1617 20.8634 52.358 20.585" stroke="#252525" stroke-width="2" stroke-linecap="round"/>
<path d="M23.1888 49.499C22.9878 49.4997 22.3367 49.5684 21.6765 49.7645C21.222 49.8996 20.7826 50.0499 19.993 50.4511C19.5231 50.738 19.2094 50.9558 19.0727 51.0862C19.0002 51.1577 18.921 51.2402 18.8169 51.3615" stroke="#252525" stroke-width="2" stroke-linecap="round"/>
<path d="M24.3617 51.2363C24.3591 51.2363 24.3565 51.2363 24.1815 51.4109C24.0066 51.5855 23.6594 51.9347 23.3169 52.2797C22.9744 52.6248 22.6472 52.9551 22.2637 53.3582" stroke="#252525" stroke-width="2" stroke-linecap="round"/>
<path d="M26.475 52.7178C26.475 52.7131 26.213 53.0694 25.7887 53.6418C25.5722 53.9131 25.14 54.4734 24.548 55.2712C24.3322 55.5681 24.2882 55.6458 24.1704 55.8243" stroke="#252525" stroke-width="2" stroke-linecap="round"/>
<path d="M33.2275 46.332C33.3666 46.3476 33.8129 46.4185 34.1282 46.5714C34.3402 46.7127 34.5198 46.8476 34.6427 46.9589C34.7073 47.0206 34.7767 47.0931 34.8844 47.2732" stroke="#FEE5E4" stroke-width="2" stroke-linecap="round"/>
<path d="M31.9213 47.7666C31.9162 47.7715 31.9146 48.086 31.9344 48.6279C31.99 48.996 32.0815 49.2659 32.1779 49.4939C32.2206 49.5944 32.2506 49.6643 32.2942 49.7331" stroke="#FEE5E4" stroke-width="2" stroke-linecap="round"/>
<path d="M50.7422 28.1309C50.7517 28.1309 50.8633 28.1403 51.1037 28.1725C51.3951 28.2312 51.691 28.3079 51.9597 28.406C52.0948 28.4643 52.2274 28.5401 52.5346 28.7036" stroke="#FEE5E4" stroke-width="2" stroke-linecap="round"/>
<path d="M49.1733 29.6895C49.1743 29.8162 49.2872 30.2213 49.5188 30.6115C49.6349 30.777 49.7461 30.9125 49.8578 31.0582C49.9176 31.146 49.9839 31.2619 50.2232 31.4017" stroke="#FEE5E4" stroke-width="2" stroke-linecap="round"/>
<circle cx="28.5" cy="42" r="4" fill="#252525"/>
<circle cx="44.5" cy="26" r="4" fill="#252525"/>
<path d="M39.3811 37.7432C39.4482 37.7561 39.7142 37.8809 39.9081 38.0482C40.0947 38.2091 40.2338 38.5394 40.3525 38.8133C40.4921 39.1353 40.4751 39.3981 40.5132 39.6454C40.5466 39.8629 40.5104 40.1266 40.4344 40.3341C40.3491 40.5671 40.1349 40.7566 39.9442 40.8735C39.6721 41.0402 39.2041 41.0815 38.7823 41.156C38.6913 41.1704 38.6431 41.1742 38.5759 41.1778C38.5086 41.1814 38.4238 41.1845 38.3281 41.1996" stroke="black" stroke-width="2" stroke-linecap="round"/>
<path d="M39.6377 37.9459C39.7126 37.9644 40.2381 38.1906 40.6437 38.3882C41.2227 38.6704 41.9485 38.6402 42.4551 38.5469C42.9231 38.4607 43.2179 37.9939 43.4732 37.6683C43.5057 37.612 43.523 37.566 43.5386 37.5212C43.5543 37.4765 43.5677 37.4344 43.586 37.4092" stroke="black" stroke-width="2" stroke-linecap="round"/>
<path d="M39.2819 37.4043C39.278 36.8873 39.2241 35.6532 39.1006 35.4109C38.9753 35.1651 38.6727 35.0551 38.3625 35.0065C37.9804 34.9466 37.5079 35.3088 37.0392 35.7502C36.5804 36.1823 36.5095 36.7102 36.5 37.0142C36.7862 37.2142 37.216 37.4123 37.5474 37.4461C37.8094 37.4654 38.262 37.4894 38.7283 37.514" stroke="black" stroke-width="2" stroke-linecap="round"/>
<path d="M38.5 36L38.5328 36.0341" stroke="black" stroke-width="2" stroke-linecap="round"/>
</svg>
