<svg width="24" height="25" viewBox="0 0 24 25" fill="none" xmlns="http://www.w3.org/2000/svg">
<path d="M16 8.12402C17.5913 8.12402 19.1174 8.75616 20.2426 9.88138C21.3679 11.0066 22 12.5327 22 14.124V21.124H18V14.124C18 13.5936 17.7893 13.0849 17.4142 12.7098C17.0391 12.3347 16.5304 12.124 16 12.124C15.4696 12.124 14.9609 12.3347 14.5858 12.7098C14.2107 13.0849 14 13.5936 14 14.124V21.124H10V14.124C10 12.5327 10.6321 11.0066 11.7574 9.88138C12.8826 8.75616 14.4087 8.12402 16 8.12402Z" stroke="black" stroke-width="2" stroke-linecap="round" stroke-linejoin="round"/>
<path d="M6 9.12402H2V21.124H6V9.12402Z" stroke="black" stroke-width="2" stroke-linecap="round" stroke-linejoin="round"/>
<path d="M4 6.12402C5.10457 6.12402 6 5.22859 6 4.12402C6 3.01945 5.10457 2.12402 4 2.12402C2.89543 2.12402 2 3.01945 2 4.12402C2 5.22859 2.89543 6.12402 4 6.12402Z" stroke="black" stroke-width="2" stroke-linecap="round" stroke-linejoin="round"/>
</svg>
