<svg width="24" height="25" viewBox="0 0 24 25" fill="none" xmlns="http://www.w3.org/2000/svg">
<path d="M20 10.124C20 15.117 14.461 20.317 12.601 21.923C12.4277 22.0533 12.2168 22.1238 12 22.1238C11.7832 22.1238 11.5723 22.0533 11.399 21.923C9.539 20.317 4 15.117 4 10.124C4 8.00229 4.84285 5.96746 6.34315 4.46717C7.84344 2.96688 9.87827 2.12402 12 2.12402C14.1217 2.12402 16.1566 2.96688 17.6569 4.46717C19.1571 5.96746 20 8.00229 20 10.124Z" stroke="white" stroke-width="2" stroke-linecap="round" stroke-linejoin="round"/>
<path d="M12 13.124C13.6569 13.124 15 11.7809 15 10.124C15 8.46717 13.6569 7.12402 12 7.12402C10.3431 7.12402 9 8.46717 9 10.124C9 11.7809 10.3431 13.124 12 13.124Z" stroke="white" stroke-width="2" stroke-linecap="round" stroke-linejoin="round"/>
</svg>
