<svg width="25" height="25" viewBox="0 0 25 25" fill="none" xmlns="http://www.w3.org/2000/svg">
<path d="M14.332 16.692C14.5385 16.7869 14.7712 16.8085 14.9917 16.7535C15.2122 16.6984 15.4073 16.5698 15.545 16.389L15.9 15.924C16.0863 15.6756 16.3279 15.474 16.6056 15.3352C16.8833 15.1963 17.1895 15.124 17.5 15.124H20.5C21.0304 15.124 21.5391 15.3347 21.9142 15.7098C22.2893 16.0849 22.5 16.5936 22.5 17.124V20.124C22.5 20.6545 22.2893 21.1632 21.9142 21.5382C21.5391 21.9133 21.0304 22.124 20.5 22.124C15.7261 22.124 11.1477 20.2276 7.77208 16.8519C4.39642 13.4763 2.5 8.89792 2.5 4.12402C2.5 3.59359 2.71071 3.08488 3.08579 2.70981C3.46086 2.33474 3.96957 2.12402 4.5 2.12402H7.5C8.03043 2.12402 8.53914 2.33474 8.91421 2.70981C9.28929 3.08488 9.5 3.59359 9.5 4.12402V7.12402C9.5 7.43451 9.42771 7.74074 9.28885 8.01845C9.15 8.29616 8.94839 8.53773 8.7 8.72402L8.232 9.07502C8.04842 9.2152 7.91902 9.41461 7.86579 9.63937C7.81256 9.86414 7.83878 10.1004 7.94 10.308C9.30668 13.0839 11.5544 15.3288 14.332 16.692Z" stroke="white" stroke-width="2" stroke-linecap="round" stroke-linejoin="round"/>
</svg>
